<svg width="40" height="40" viewBox="0 0 40 40" fill="none" xmlns="http://www.w3.org/2000/svg">
<path fill-rule="evenodd" clip-rule="evenodd" d="M20 37.9999C29.941 37.9999 38 29.9409 38 20C38 10.059 29.941 2 20 2C10.059 2 2 10.059 2 20C2 29.9409 10.059 37.9999 20 37.9999ZM20 39.9999C31.046 39.9999 40 31.0459 40 20C40 8.95398 31.046 0 20 0C8.954 0 0 8.95398 0 20C0 31.0459 8.954 39.9999 20 39.9999Z" fill="#6C4A4A"/>
<path d="M8 31.6299C8 30.5969 8.772 29.7239 9.8 29.6099C17.515 28.7559 22.52 28.8329 30.218 29.6289C30.6024 29.6693 30.9668 29.8207 31.2665 30.0648C31.5663 30.3088 31.7885 30.6348 31.906 31.003C32.0235 31.3713 32.0312 31.7658 31.9282 32.1383C31.8252 32.5108 31.616 32.8453 31.326 33.1009C22.241 41.0199 17.049 40.9109 8.64 33.1089C8.23 32.7289 8 32.1889 8 31.6309V31.6299Z" fill="#6C4A4A"/>
<path fill-rule="evenodd" clip-rule="evenodd" d="M30.115 30.623C22.478 29.833 17.545 29.759 9.90901 30.604C9.39501 30.661 9.00001 31.1 9.00001 31.631C9.00001 31.917 9.11901 32.188 9.32001 32.376C13.488 36.2419 16.646 37.9889 19.733 37.9999C22.831 38.0109 26.159 36.2779 30.669 32.348C30.8123 32.2204 30.9154 32.054 30.9659 31.869C31.0164 31.6839 31.012 31.4882 30.9533 31.3056C30.8946 31.123 30.7842 30.9613 30.6354 30.8403C30.4865 30.7193 30.3058 30.6441 30.115 30.624V30.623ZM9.69001 28.616C17.486 27.753 22.564 27.831 30.322 28.634C30.9003 28.6943 31.4485 28.922 31.8994 29.2891C32.3503 29.6562 32.6844 30.1468 32.8607 30.7008C33.0371 31.2549 33.0481 31.8483 32.8924 32.4085C32.7367 32.9687 32.421 33.4714 31.984 33.855C27.409 37.8429 23.599 40.0149 19.727 39.9999C15.844 39.9859 12.202 37.7769 7.96101 33.842C7.65736 33.5591 7.4153 33.2167 7.24995 32.8361C7.0846 32.4555 6.99951 32.0449 7.00001 31.63C6.99855 30.8844 7.27221 30.1645 7.76857 29.6082C8.26493 29.0518 8.94909 28.6982 9.69001 28.615V28.616Z" fill="#6C4A4A"/>
<path d="M28 16C28 18.1217 27.1572 20.1565 25.6569 21.6568C24.1566 23.1571 22.1217 24 20 24C17.8783 24 15.8434 23.1571 14.3431 21.6568C12.8429 20.1565 12 18.1217 12 16C12 13.8783 12.8429 11.8434 14.3431 10.3431C15.8434 8.84285 17.8783 8 20 8C22.1217 8 24.1566 8.84285 25.6569 10.3431C27.1572 11.8434 28 13.8783 28 16Z" fill="#6C4A4A"/>
<path fill-rule="evenodd" clip-rule="evenodd" d="M20 22C21.5913 22 23.1174 21.3678 24.2427 20.2426C25.3679 19.1174 26 17.5913 26 16C26 14.4087 25.3679 12.8826 24.2427 11.7574C23.1174 10.6321 21.5913 10 20 10C18.4087 10 16.8826 10.6321 15.7574 11.7574C14.6321 12.8826 14 14.4087 14 16C14 17.5913 14.6321 19.1174 15.7574 20.2426C16.8826 21.3678 18.4087 22 20 22ZM20 24C22.1217 24 24.1566 23.1571 25.6569 21.6568C27.1572 20.1565 28 18.1217 28 16C28 13.8783 27.1572 11.8434 25.6569 10.3431C24.1566 8.84285 22.1217 8 20 8C17.8783 8 15.8434 8.84285 14.3431 10.3431C12.8429 11.8434 12 13.8783 12 16C12 18.1217 12.8429 20.1565 14.3431 21.6568C15.8434 23.1571 17.8783 24 20 24Z" fill="#6C4A4A"/>
</svg>
