<svg width="31" height="39" viewBox="0 0 31 39" fill="none" xmlns="http://www.w3.org/2000/svg">
<path d="M20.875 32.0416C20.875 33.4672 20.3087 34.8343 19.3007 35.8423C18.2927 36.8503 16.9255 37.4166 15.5 37.4166C14.0744 37.4166 12.7073 36.8503 11.6993 35.8423C10.6913 34.8343 10.125 33.4672 10.125 32.0416M16.7918 6.96366L14.1652 6.95828C8.17386 6.94395 2.97265 11.8119 2.93144 17.7083V24.4987C2.93144 25.9141 2.75228 27.2955 1.98007 28.4726L1.46586 29.2574C0.6829 30.447 1.52498 32.0416 2.93144 32.0416H28.0685C29.475 32.0416 30.3153 30.447 29.5341 29.2574L29.0199 28.4726C28.2495 27.2955 28.0685 25.9123 28.0685 24.4969V17.7101C27.9969 11.8119 22.7831 6.97799 16.7918 6.96366V6.96366Z" stroke="#6C4A4A" stroke-width="2" stroke-linecap="round" stroke-linejoin="round"/>
<path d="M15.4998 1.58331C16.4502 1.58331 17.3616 1.96084 18.0336 2.63285C18.7056 3.30485 19.0832 4.21629 19.0832 5.16665V6.95831H11.9165V5.16665C11.9165 4.21629 12.294 3.30485 12.966 2.63285C13.638 1.96084 14.5495 1.58331 15.4998 1.58331Z" stroke="#6C4A4A" stroke-width="2" stroke-linecap="round" stroke-linejoin="round"/>
</svg>
