<svg width="35" height="35" viewBox="0 0 35 35" fill="none" xmlns="http://www.w3.org/2000/svg">
<path d="M28.4375 4.375H6.5625C5.98234 4.375 5.42594 4.60547 5.0157 5.0157C4.60547 5.42594 4.375 5.98234 4.375 6.5625V28.4375C4.375 29.0177 4.60547 29.5741 5.0157 29.9843C5.42594 30.3945 5.98234 30.625 6.5625 30.625H28.4375C29.0177 30.625 29.5741 30.3945 29.9843 29.9843C30.3945 29.5741 30.625 29.0177 30.625 28.4375V6.5625C30.625 5.98234 30.3945 5.42594 29.9843 5.0157C29.5741 4.60547 29.0177 4.375 28.4375 4.375Z" stroke="#6C4A4A" stroke-width="2.5"/>
<path d="M19.9062 8.75003C18.577 8.75003 17.5 9.79638 17.5 11.0863C17.5 13.4233 20.3438 15.5473 21.875 16.0417C23.4063 15.5473 26.25 13.424 26.25 11.0863C26.25 9.79565 25.173 8.75003 23.8438 8.75003C23.4605 8.74821 23.0822 8.83727 22.74 9.0099C22.3978 9.18253 22.1013 9.43382 21.875 9.74315C21.6487 9.43382 21.3522 9.18253 21.01 9.0099C20.6678 8.83727 20.2895 8.74821 19.9062 8.75003V8.75003Z" stroke="#6C4A4A" stroke-width="2.5" stroke-linecap="round" stroke-linejoin="round"/>
</svg>
