<svg width="35" height="35" viewBox="0 0 35 35" fill="none" xmlns="http://www.w3.org/2000/svg">
<path d="M7.29167 32.0833H27.7083C29.3169 32.0833 30.625 30.7752 30.625 29.1667V7.29166C30.625 5.68311 29.3169 4.37499 27.7083 4.37499H24.7917C24.7917 3.98822 24.638 3.61728 24.3645 3.34379C24.091 3.0703 23.7201 2.91666 23.3333 2.91666H11.6667C11.2799 2.91666 10.909 3.0703 10.6355 3.34379C10.362 3.61728 10.2083 3.98822 10.2083 4.37499H7.29167C5.68313 4.37499 4.375 5.68311 4.375 7.29166V29.1667C4.375 30.7752 5.68313 32.0833 7.29167 32.0833ZM7.29167 7.29166H10.2083V10.2083H24.7917V7.29166H27.7083V29.1667H7.29167V7.29166Z" fill="#6C4A4A"/>
<path d="M16.0416 19.8129L13.4268 17.1981L11.3647 19.2602L16.0416 23.9371L23.6352 16.3435L21.5731 14.2815L16.0416 19.8129Z" fill="#6C4A4A"/>
</svg>
